<?xml version="1.0" encoding="UTF-8"?>
<!DOCTYPE svg PUBLIC "-//W3C//DTD SVG 1.1//EN" "http://www.w3.org/Graphics/SVG/1.1/DTD/svg11.dtd">
<svg xmlns="http://www.w3.org/2000/svg" version="1.1" width="487px" height="513px" style="shape-rendering:geometricPrecision; text-rendering:geometricPrecision; image-rendering:optimizeQuality; fill-rule:evenodd; clip-rule:evenodd" xmlns:xlink="http://www.w3.org/1999/xlink">
<g><path style="opacity:0.627" fill="#faec96" d="M 259.5,81.5 C 263.817,81.0834 267.817,81.7501 271.5,83.5C 267.21,83.8023 263.21,83.1357 259.5,81.5 Z"/></g>
<g><path style="opacity:0.937" fill="#fae780" d="M 281.5,85.5 C 283.527,85.3379 285.527,85.5045 287.5,86C 290.231,87.1723 292.898,88.3389 295.5,89.5C 290.45,89.1455 285.783,87.8121 281.5,85.5 Z"/></g>
<g><path style="opacity:1" fill="#f6de4a" d="M 207.5,84.5 C 198.541,88.9352 188.874,92.4352 178.5,95C 172.594,98.956 166.261,101.789 159.5,103.5C 174.166,94.0505 190.166,87.7171 207.5,84.5 Z"/></g>
<g><path style="opacity:1" fill="#f8e366" d="M 296.5,89.5 C 301.508,91.0116 306.174,93.0116 310.5,95.5C 304.717,95.6775 300.05,93.6775 296.5,89.5 Z"/></g>
<g><path style="opacity:1" fill="#f6df57" d="M 310.5,95.5 C 318.212,97.8959 325.212,101.563 331.5,106.5C 327.921,106.684 324.587,106.017 321.5,104.5C 321.719,103.325 321.386,102.325 320.5,101.5C 316.44,100.48 313.107,98.48 310.5,95.5 Z"/></g>
<g><path style="opacity:0.627" fill="#f6e37f" d="M 331.5,106.5 C 333.909,107.701 335.909,109.367 337.5,111.5C 334.638,110.753 332.638,109.086 331.5,106.5 Z"/></g>
<g><path style="opacity:1" fill="#fae363" d="M 147.5,111.5 C 145.137,115.237 141.803,117.57 137.5,118.5C 140.494,115.725 143.827,113.392 147.5,111.5 Z"/></g>
<g><path style="opacity:1" fill="#fabd14" d="M 209.5,111.5 C 210.552,111.351 211.552,111.517 212.5,112C 211.594,113.699 211.261,115.533 211.5,117.5C 231.151,115.426 250.818,115.593 270.5,118C 281.254,119.782 291.254,123.449 300.5,129C 302.473,129.495 304.473,129.662 306.5,129.5C 306.338,127.473 306.505,125.473 307,123.5C 307.671,122.748 308.504,122.414 309.5,122.5C 308.061,124.588 307.394,126.921 307.5,129.5C 308.5,129.5 309.5,129.5 310.5,129.5C 310.5,130.833 310.5,132.167 310.5,133.5C 314.253,134.412 317.253,136.412 319.5,139.5C 314.688,137.492 310.188,134.826 306,131.5C 305.55,135.643 307.217,139.31 311,142.5C 312.688,149.065 314.855,155.399 317.5,161.5C 317.5,162.833 317.5,164.167 317.5,165.5C 276.499,165.333 235.499,165.5 194.5,166C 193.663,167.011 193.33,168.178 193.5,169.5C 187,178.497 181,187.831 175.5,197.5C 192.833,197.5 210.167,197.5 227.5,197.5C 227.611,198.117 227.944,198.617 228.5,199C 217.5,199.333 206.5,199.667 195.5,200C 194.956,200.717 194.289,201.217 193.5,201.5C 193.5,200.5 193.5,199.5 193.5,198.5C 187.545,199.363 181.545,199.697 175.5,199.5C 175.281,200.675 175.614,201.675 176.5,202.5C 177.609,201.41 178.609,201.41 179.5,202.5C 177.955,203.452 176.288,203.785 174.5,203.5C 174.5,204.5 174.5,205.5 174.5,206.5C 172.173,206.665 170.007,207.331 168,208.5C 166.034,208.284 163.867,207.618 161.5,206.5C 162.833,204.5 164.167,202.5 165.5,200.5C 163.926,199.016 162.593,197.349 161.5,195.5C 156.718,199.391 153.718,204.391 152.5,210.5C 151.008,213.038 149.341,215.371 147.5,217.5C 150.491,210.302 153.324,202.969 156,195.5C 189.672,151.777 233.505,136.277 287.5,149C 294.326,151.275 300.993,153.942 307.5,157C 309.797,159.664 312.463,160.831 315.5,160.5C 281.057,134.65 243.39,128.816 202.5,143C 195.062,147.437 187.396,151.437 179.5,155C 172.351,159.669 165.851,165.169 160,171.5C 155.279,177.221 150.946,183.221 147,189.5C 143.561,196.055 139.894,202.389 136,208.5C 127.735,234.735 127.401,261.068 135,287.5C 138.392,294.347 141.392,301.347 144,308.5C 148.832,313.501 152.666,319.167 155.5,325.5C 148.33,322.497 141.163,319.497 134,316.5C 133.517,317.448 133.351,318.448 133.5,319.5C 129.548,309.664 124.715,300.331 119,291.5C 115.083,277.085 112.917,262.418 112.5,247.5C 111.5,247.5 110.5,247.5 109.5,247.5C 109.5,246.833 109.5,246.167 109.5,245.5C 111.956,241.121 111.956,236.454 109.5,231.5C 101.071,230.953 92.7373,229.786 84.5,228C 83.6198,226.644 83.2865,225.144 83.5,223.5C 91.4033,223.136 99.07,223.803 106.5,225.5C 101.325,225.351 96.1584,225.018 91,224.5C 88.8333,224.833 86.6667,225.167 84.5,225.5C 84.6667,225.833 84.8333,226.167 85,226.5C 93.2436,229.02 101.744,230.02 110.5,229.5C 110.567,228.041 110.234,226.708 109.5,225.5C 111.124,225.64 112.29,224.973 113,223.5C 115.471,214.422 118.138,205.422 121,196.5C 123.243,191.015 125.743,185.682 128.5,180.5C 129.76,179.618 130.926,178.618 132,177.5C 132.721,173.658 134.387,170.324 137,167.5C 145.066,159.77 152.733,151.77 160,143.5C 160.47,142.423 160.303,141.423 159.5,140.5C 162.634,139.892 163.301,138.226 161.5,135.5C 162.85,136.483 163.85,137.816 164.5,139.5C 168.345,138.08 171.678,135.913 174.5,133C 176.788,132.178 179.122,131.511 181.5,131C 184.68,127.804 188.347,125.471 192.5,124C 189.307,122.974 187.974,120.808 188.5,117.5C 189.391,118.261 190.058,119.261 190.5,120.5C 191.325,121.386 192.325,121.719 193.5,121.5C 193.369,122.376 193.702,123.043 194.5,123.5C 199.574,121.618 204.241,119.784 208.5,118C 207.619,117.292 206.953,116.458 206.5,115.5C 207.5,115.5 208.5,115.5 209.5,115.5C 209.5,114.167 209.5,112.833 209.5,111.5 Z"/></g>
<g><path style="opacity:0.424" fill="#feefa1" d="M 137.5,118.5 C 136.738,120.262 135.404,121.262 133.5,121.5C 134.262,119.738 135.596,118.738 137.5,118.5 Z"/></g>
<g><path style="opacity:1" fill="#f7e053" d="M 338.5,111.5 C 343.955,115.115 349.288,118.948 354.5,123C 358.049,126.047 361.049,129.547 363.5,133.5C 362.127,133.657 360.793,133.49 359.5,133C 357.368,129.369 354.701,126.202 351.5,123.5C 348.124,119.86 344.124,116.86 339.5,114.5C 338.873,113.583 338.539,112.583 338.5,111.5 Z"/></g>
<g><path style="opacity:0.706" fill="#fae67b" d="M 127.5,127.5 C 124.543,132.457 120.543,136.457 115.5,139.5C 119.215,135.119 123.215,131.119 127.5,127.5 Z"/></g>
<g><path style="opacity:0.604" fill="#fceb8a" d="M 365.5,134.5 C 367.547,136.55 369.214,138.883 370.5,141.5C 367.677,140.008 366.01,137.674 365.5,134.5 Z"/></g>
<g><path style="opacity:0.498" fill="#fdf08d" d="M 115.5,139.5 C 115.378,142.292 114.044,144.292 111.5,145.5C 112.449,143.223 113.782,141.223 115.5,139.5 Z"/></g>
<g><path style="opacity:1" fill="#f8e370" d="M 378.5,152.5 C 381.241,154.975 383.241,157.975 384.5,161.5C 380.744,159.652 378.744,156.652 378.5,152.5 Z"/></g>
<g><path style="opacity:1" fill="#f7e156" d="M 111.5,145.5 C 109.729,151.539 107.063,157.039 103.5,162C 101.355,165.312 98.6888,168.145 95.5,170.5C 100.043,161.631 105.376,153.298 111.5,145.5 Z"/></g>
<g><path style="opacity:0.827" fill="#f7e575" d="M 384.5,161.5 C 386.527,164.22 388.193,167.22 389.5,170.5C 386.681,168.299 385.015,165.299 384.5,161.5 Z"/></g>
<g><path style="opacity:1" fill="#e69a26" d="M 319.5,139.5 C 343.665,158.476 360.498,182.476 370,211.5C 370.519,216.238 371.352,220.905 372.5,225.5C 373.782,238.837 373.782,252.171 372.5,265.5C 371.841,268.455 371.508,271.455 371.5,274.5C 363.657,302.319 348.99,326.153 327.5,346C 323.295,349.929 318.628,353.096 313.5,355.5C 313.5,354.167 313.5,352.833 313.5,351.5C 322.554,350.539 322.554,349.205 313.5,347.5C 312.833,344.833 312.167,342.167 311.5,339.5C 308.319,339.742 305.319,339.742 302.5,339.5C 302.167,339 301.833,338.5 301.5,338C 302.856,336.433 303.523,334.6 303.5,332.5C 301.5,333.167 299.5,333.833 297.5,334.5C 292.193,329.023 287.026,323.357 282,317.5C 280.594,312.427 277.428,308.927 272.5,307C 271.695,305.887 271.028,304.721 270.5,303.5C 272.783,303.392 274.783,302.559 276.5,301C 278,298.167 280.167,296 283,294.5C 290.074,286.433 296.741,278.1 303,269.5C 309.232,257.924 314.565,245.924 319,233.5C 325.31,209.215 324.81,185.215 317.5,161.5C 314.855,155.399 312.688,149.065 311,142.5C 307.217,139.31 305.55,135.643 306,131.5C 310.188,134.826 314.688,137.492 319.5,139.5 Z"/></g>
<g><path style="opacity:1" fill="#fdd517" d="M 259.5,81.5 C 263.21,83.1357 267.21,83.8023 271.5,83.5C 275.122,83.322 278.456,83.9886 281.5,85.5C 285.783,87.8121 290.45,89.1455 295.5,89.5C 295.833,89.5 296.167,89.5 296.5,89.5C 300.05,93.6775 304.717,95.6775 310.5,95.5C 313.107,98.48 316.44,100.48 320.5,101.5C 321.386,102.325 321.719,103.325 321.5,104.5C 324.587,106.017 327.921,106.684 331.5,106.5C 332.638,109.086 334.638,110.753 337.5,111.5C 337.833,111.5 338.167,111.5 338.5,111.5C 338.539,112.583 338.873,113.583 339.5,114.5C 344.124,116.86 348.124,119.86 351.5,123.5C 354.701,126.202 357.368,129.369 359.5,133C 360.793,133.49 362.127,133.657 363.5,133.5C 364.167,133.833 364.833,134.167 365.5,134.5C 366.01,137.674 367.677,140.008 370.5,141.5C 373.933,144.601 376.6,148.268 378.5,152.5C 378.744,156.652 380.744,159.652 384.5,161.5C 385.015,165.299 386.681,168.299 389.5,170.5C 391.341,172.849 392.674,175.515 393.5,178.5C 393.62,181.578 394.62,184.245 396.5,186.5C 396.192,188.924 396.526,191.257 397.5,193.5C 398.859,194.624 399.859,195.958 400.5,197.5C 400.336,200.187 400.503,202.854 401,205.5C 402.846,208.569 403.846,211.902 404,215.5C 404.853,229.013 406.02,242.347 407.5,255.5C 407.5,257.833 407.5,260.167 407.5,262.5C 404.658,284.361 397.991,305.028 387.5,324.5C 386.167,324.5 384.833,324.5 383.5,324.5C 383.5,322.833 383.5,321.167 383.5,319.5C 382.5,319.5 381.5,319.5 380.5,319.5C 380.5,318.167 380.5,316.833 380.5,315.5C 382.722,315.178 384.556,315.845 386,317.5C 387.441,315.695 387.608,313.695 386.5,311.5C 383.309,310.28 379.975,309.447 376.5,309C 378.301,308.683 378.634,308.016 377.5,307C 379.433,306.217 380.933,306.717 382,308.5C 384.73,308.155 387.563,307.989 390.5,308C 392.578,306.73 392.912,305.23 391.5,303.5C 390.041,303.567 388.708,303.234 387.5,302.5C 386.047,301.175 386.381,300.342 388.5,300C 382.644,297.883 376.644,296.049 370.5,294.5C 372.5,293.833 374.5,293.167 376.5,292.5C 376.167,291.833 375.833,291.167 375.5,290.5C 377.078,289.702 378.744,289.202 380.5,289C 380.043,288.586 379.709,288.086 379.5,287.5C 382.086,286.52 384.753,286.187 387.5,286.5C 390.764,287.324 394.098,287.658 397.5,287.5C 397.719,286.325 397.386,285.325 396.5,284.5C 393.427,283.65 390.427,282.65 387.5,281.5C 382.59,278.932 377.257,277.932 371.5,278.5C 371.5,277.167 371.5,275.833 371.5,274.5C 371.508,271.455 371.841,268.455 372.5,265.5C 373.391,264.89 374.391,264.557 375.5,264.5C 383.995,265.457 392.662,266.123 401.5,266.5C 401.64,264.876 400.973,263.71 399.5,263C 393.204,261.988 386.871,261.488 380.5,261.5C 378.735,260.539 376.735,260.205 374.5,260.5C 374.5,256.167 374.5,251.833 374.5,247.5C 383.173,247.666 391.84,247.5 400.5,247C 401.973,246.29 402.64,245.124 402.5,243.5C 401.5,243.5 400.5,243.5 399.5,243.5C 392.5,243.5 385.5,243.5 378.5,243.5C 377.167,243.5 375.833,243.5 374.5,243.5C 374.5,239.167 374.5,234.833 374.5,230.5C 379.546,230.735 384.213,229.735 388.5,227.5C 391.942,226.252 395.608,225.419 399.5,225C 399.957,224.586 400.291,224.086 400.5,223.5C 399,223.167 397.5,222.833 396,222.5C 388.831,222.824 381.998,224.158 375.5,226.5C 374.391,226.443 373.391,226.11 372.5,225.5C 371.352,220.905 370.519,216.238 370,211.5C 360.498,182.476 343.665,158.476 319.5,139.5C 317.253,136.412 314.253,134.412 310.5,133.5C 310.5,132.167 310.5,130.833 310.5,129.5C 313.996,122.342 317.663,115.176 321.5,108C 321.167,107.5 320.833,107 320.5,106.5C 315.849,111.129 312.182,116.463 309.5,122.5C 308.504,122.414 307.671,122.748 307,123.5C 306.505,125.473 306.338,127.473 306.5,129.5C 304.473,129.662 302.473,129.495 300.5,129C 291.254,123.449 281.254,119.782 270.5,118C 250.818,115.593 231.151,115.426 211.5,117.5C 211.261,115.533 211.594,113.699 212.5,112C 211.552,111.517 210.552,111.351 209.5,111.5C 207.054,105.136 205.387,98.4689 204.5,91.5C 202.833,91.5 201.167,91.5 199.5,91.5C 202.331,99.2962 204.664,107.296 206.5,115.5C 206.953,116.458 207.619,117.292 208.5,118C 204.241,119.784 199.574,121.618 194.5,123.5C 193.702,123.043 193.369,122.376 193.5,121.5C 191.622,113.718 188.288,106.551 183.5,100C 182.4,99.5683 181.733,100.068 181.5,101.5C 181.667,102.167 181.833,102.833 182,103.5C 184.174,108.281 186.341,112.947 188.5,117.5C 187.974,120.808 189.307,122.974 192.5,124C 188.347,125.471 184.68,127.804 181.5,131C 179.122,131.511 176.788,132.178 174.5,133C 171.678,135.913 168.345,138.08 164.5,139.5C 163.85,137.816 162.85,136.483 161.5,135.5C 157.291,131.438 153.791,126.772 151,121.5C 149.736,119.393 147.903,118.393 145.5,118.5C 145.491,120.308 145.991,121.975 147,123.5C 152.153,128.485 156.319,134.152 159.5,140.5C 160.303,141.423 160.47,142.423 160,143.5C 152.733,151.77 145.066,159.77 137,167.5C 134.387,170.324 132.721,173.658 132,177.5C 130.926,178.618 129.76,179.618 128.5,180.5C 125.743,185.682 123.243,191.015 121,196.5C 118.138,205.422 115.471,214.422 113,223.5C 112.29,224.973 111.124,225.64 109.5,225.5C 108.5,225.5 107.5,225.5 106.5,225.5C 99.07,223.803 91.4033,223.136 83.5,223.5C 83.2865,225.144 83.6198,226.644 84.5,228C 92.7373,229.786 101.071,230.953 109.5,231.5C 111.956,236.454 111.956,241.121 109.5,245.5C 100.895,243.529 91.8955,242.862 82.5,243.5C 82.5,245.167 82.5,246.833 82.5,248.5C 86.6472,249.325 90.9805,249.825 95.5,250C 96.8333,250.667 96.8333,251.333 95.5,252C 98.562,252.741 101.562,252.575 104.5,251.5C 105.59,252.391 105.59,253.391 104.5,254.5C 105.376,255.251 106.376,255.751 107.5,256C 106.833,256.333 106.167,256.667 105.5,257C 107.663,257.245 109.33,258.245 110.5,260C 103.372,260.106 96.3719,260.94 89.5,262.5C 87.3807,262.402 85.714,261.569 84.5,260C 82.5273,259.505 80.5273,259.338 78.5,259.5C 78.3336,250.494 78.5002,241.494 79,232.5C 80.2319,223.88 81.5652,215.213 83,206.5C 84,204.833 85,203.167 86,201.5C 86.427,196.41 87.2604,191.41 88.5,186.5C 92.1448,182.166 94.4781,177.166 95.5,171.5C 95.5,171.167 95.5,170.833 95.5,170.5C 98.6888,168.145 101.355,165.312 103.5,162C 107.063,157.039 109.729,151.539 111.5,145.5C 114.044,144.292 115.378,142.292 115.5,139.5C 120.543,136.457 124.543,132.457 127.5,127.5C 129.167,125.167 131.167,123.167 133.5,121.5C 135.404,121.262 136.738,120.262 137.5,118.5C 141.803,117.57 145.137,115.237 147.5,111.5C 151.148,108.34 155.148,105.673 159.5,103.5C 166.261,101.789 172.594,98.956 178.5,95C 188.874,92.4352 198.541,88.9352 207.5,84.5C 224.513,80.5951 241.847,79.5951 259.5,81.5 Z"/></g>
<g><path style="opacity:1" fill="#e4a31a" d="M 375.5,163.5 C 377.167,163.5 378.833,163.5 380.5,163.5C 380.719,164.675 380.386,165.675 379.5,166.5C 373.8,170.345 368.133,174.178 362.5,178C 360.866,178.494 359.199,178.66 357.5,178.5C 357.281,177.325 357.614,176.325 358.5,175.5C 363.701,172.068 369.034,168.901 374.5,166C 375.252,165.329 375.586,164.496 375.5,163.5 Z"/></g>
<g><path style="opacity:1" fill="#e5a31d" d="M 115.5,147.5 C 118.49,148.622 121.157,150.456 123.5,153C 127.146,155.302 130.813,157.636 134.5,160C 136.037,161.11 136.703,162.61 136.5,164.5C 133.984,164.245 131.65,163.411 129.5,162C 124.091,158.299 119.091,154.133 114.5,149.5C 114.863,148.817 115.196,148.15 115.5,147.5 Z"/></g>
<g><path style="opacity:1" fill="#e3a11c" d="M 365.5,146.5 C 366.5,146.5 367.5,146.5 368.5,146.5C 368.256,149.263 366.923,151.429 364.5,153C 359.936,156.902 355.102,160.402 350,163.5C 349.5,163.167 349,162.833 348.5,162.5C 349.861,160.972 351.028,159.305 352,157.5C 356.979,154.348 361.479,150.681 365.5,146.5 Z"/></g>
<g><path style="opacity:1" fill="#e4a217" d="M 129.5,132.5 C 132.14,132.954 134.473,134.121 136.5,136C 140.027,140.861 144.194,145.027 149,148.5C 149.483,149.448 149.649,150.448 149.5,151.5C 147.692,151.509 146.025,151.009 144.5,150C 139.667,145.167 134.833,140.333 130,135.5C 129.517,134.552 129.351,133.552 129.5,132.5 Z"/></g>
<g><path style="opacity:1" fill="#e4a21d" d="M 351.5,130.5 C 352.5,130.5 353.5,130.5 354.5,130.5C 354.657,131.873 354.49,133.207 354,134.5C 348.291,140.041 342.791,145.708 337.5,151.5C 335.115,150.187 334.948,148.52 337,146.5C 342.41,141.595 347.243,136.262 351.5,130.5 Z"/></g>
<g><path style="opacity:1" fill="#e5a31c" d="M 335.5,117.5 C 336.5,117.5 337.5,117.5 338.5,117.5C 338.649,118.552 338.483,119.552 338,120.5C 333.408,125.952 329.742,131.952 327,138.5C 325.644,139.38 324.144,139.714 322.5,139.5C 323.092,136.309 324.259,133.309 326,130.5C 329.425,126.259 332.591,121.926 335.5,117.5 Z"/></g>
<g><path style="opacity:1" fill="#e4a21b" d="M 161.5,135.5 C 163.301,138.226 162.634,139.892 159.5,140.5C 156.319,134.152 152.153,128.485 147,123.5C 145.991,121.975 145.491,120.308 145.5,118.5C 147.903,118.393 149.736,119.393 151,121.5C 153.791,126.772 157.291,131.438 161.5,135.5 Z"/></g>
<g><path style="opacity:1" fill="#e6a821" d="M 310.5,129.5 C 309.5,129.5 308.5,129.5 307.5,129.5C 307.394,126.921 308.061,124.588 309.5,122.5C 312.182,116.463 315.849,111.129 320.5,106.5C 320.833,107 321.167,107.5 321.5,108C 317.663,115.176 313.996,122.342 310.5,129.5 Z"/></g>
<g><path style="opacity:1" fill="#e3a31b" d="M 161.5,107.5 C 163.144,107.286 164.644,107.62 166,108.5C 170.064,114.236 173.73,120.236 177,126.5C 177.886,129.44 177.052,130.44 174.5,129.5C 170.53,123.031 166.363,116.698 162,110.5C 161.517,109.552 161.351,108.552 161.5,107.5 Z"/></g>
<g><path style="opacity:1" fill="#e1a01c" d="M 298.5,97.5 C 299.833,97.5 301.167,97.5 302.5,97.5C 300.63,104.948 298.13,112.282 295,119.5C 294.29,120.973 293.124,121.64 291.5,121.5C 294.08,113.617 296.414,105.617 298.5,97.5 Z"/></g>
<g><path style="opacity:1" fill="#e4a623" d="M 193.5,121.5 C 192.325,121.719 191.325,121.386 190.5,120.5C 190.058,119.261 189.391,118.261 188.5,117.5C 186.341,112.947 184.174,108.281 182,103.5C 181.833,102.833 181.667,102.167 181.5,101.5C 181.733,100.068 182.4,99.5683 183.5,100C 188.288,106.551 191.622,113.718 193.5,121.5 Z"/></g>
<g><path style="opacity:1" fill="#e5a31b" d="M 280.5,90.5 C 281.5,90.5 282.5,90.5 283.5,90.5C 281.834,99.1617 280.168,107.828 278.5,116.5C 277.167,116.5 275.833,116.5 274.5,116.5C 275.859,107.61 277.859,98.9431 280.5,90.5 Z"/></g>
<g><path style="opacity:1" fill="#e3a21b" d="M 220.5,87.5 C 221.833,87.5 223.167,87.5 224.5,87.5C 225.827,96.1358 226.827,104.802 227.5,113.5C 225.876,113.64 224.71,112.973 224,111.5C 223.152,103.446 221.986,95.4461 220.5,87.5 Z"/></g>
<g><path style="opacity:1" fill="#e6a21f" d="M 259.5,86.5 C 260.5,86.5 261.5,86.5 262.5,86.5C 261.876,94.819 261.543,103.152 261.5,111.5C 260.167,111.5 258.833,111.5 257.5,111.5C 257.215,103.039 257.882,94.706 259.5,86.5 Z"/></g>
<g><path style="opacity:1" fill="#e3a21e" d="M 209.5,111.5 C 209.5,112.833 209.5,114.167 209.5,115.5C 208.5,115.5 207.5,115.5 206.5,115.5C 204.664,107.296 202.331,99.2962 199.5,91.5C 201.167,91.5 202.833,91.5 204.5,91.5C 205.387,98.4689 207.054,105.136 209.5,111.5 Z"/></g>
<g><path style="opacity:1" fill="#e1a117" d="M 239.5,85.5 C 240.5,85.5 241.5,85.5 242.5,85.5C 242.5,94.5 242.5,103.5 242.5,112.5C 241.5,112.5 240.5,112.5 239.5,112.5C 239.5,103.5 239.5,94.5 239.5,85.5 Z"/></g>
<g><path style="opacity:1" fill="#fdd952" d="M 147.5,217.5 C 144.708,222.154 142.541,227.154 141,232.5C 136.463,256.291 138.13,279.624 146,302.5C 147.552,306.873 150.052,310.539 153.5,313.5C 154.018,317.845 155.684,321.679 158.5,325C 157.906,325.464 157.239,325.631 156.5,325.5C 156.167,325.5 155.833,325.5 155.5,325.5C 152.666,319.167 148.832,313.501 144,308.5C 141.392,301.347 138.392,294.347 135,287.5C 127.401,261.068 127.735,234.735 136,208.5C 139.894,202.389 143.561,196.055 147,189.5C 150.946,183.221 155.279,177.221 160,171.5C 165.851,165.169 172.351,159.669 179.5,155C 187.396,151.437 195.062,147.437 202.5,143C 243.39,128.816 281.057,134.65 315.5,160.5C 312.463,160.831 309.797,159.664 307.5,157C 300.993,153.942 294.326,151.275 287.5,149C 233.505,136.277 189.672,151.777 156,195.5C 153.324,202.969 150.491,210.302 147.5,217.5 Z"/></g>
<g><path style="opacity:1" fill="#e5ac11" d="M 306.5,174.5 C 288.846,173.167 270.846,172.5 252.5,172.5C 234.5,172.833 216.5,173.167 198.5,173.5C 198.145,174.522 197.478,175.189 196.5,175.5C 196.5,175.167 196.5,174.833 196.5,174.5C 196.804,173.85 197.137,173.183 197.5,172.5C 234.161,171.5 270.827,171.167 307.5,171.5C 307.737,172.791 307.404,173.791 306.5,174.5 Z"/></g>
<g><path style="opacity:1" fill="#fed615" d="M 306.5,174.5 C 302.956,178.546 299.623,182.879 296.5,187.5C 295.754,188.736 295.421,190.07 295.5,191.5C 287.5,191.5 279.5,191.5 271.5,191.5C 272.542,195.919 273.875,200.252 275.5,204.5C 285.833,204.5 296.167,204.5 306.5,204.5C 302.911,210.821 298.911,216.987 294.5,223C 288.843,223.499 283.176,223.666 277.5,223.5C 276.919,233.19 274.586,242.357 270.5,251C 266.39,255.109 261.723,258.443 256.5,261C 252.095,262.135 247.762,263.468 243.5,265C 238.845,265.499 234.179,265.666 229.5,265.5C 242.233,281.422 256.067,296.755 271,311.5C 278.676,320.673 286.509,329.673 294.5,338.5C 294.291,339.086 293.957,339.586 293.5,340C 280.154,340.833 266.821,340.666 253.5,339.5C 251.86,336.027 249.36,333.36 246,331.5C 239.868,320.894 232.535,311.227 224,302.5C 210.034,283.374 195.534,264.707 180.5,246.5C 193.821,245.667 207.154,245.167 220.5,245C 227.023,243.603 233.357,241.603 239.5,239C 242.78,236.225 245.446,233.058 247.5,229.5C 248.461,227.735 248.795,225.735 248.5,223.5C 227.66,223.831 206.993,223.497 186.5,222.5C 188.624,219.486 190.457,216.152 192,212.5C 193.371,210.959 194.871,209.625 196.5,208.5C 197.627,207.878 198.627,207.045 199.5,206C 214.339,205.831 229.006,205.331 243.5,204.5C 243.267,201.091 241.6,198.591 238.5,197C 234.797,194.646 230.797,193.146 226.5,192.5C 213.167,191.833 199.833,191.167 186.5,190.5C 189.598,185.291 192.932,180.291 196.5,175.5C 197.478,175.189 198.145,174.522 198.5,173.5C 216.5,173.167 234.5,172.833 252.5,172.5C 270.846,172.5 288.846,173.167 306.5,174.5 Z"/></g>
<g><path style="opacity:1" fill="#e6a31b" d="M 104.5,164.5 C 112.014,168.423 119.681,172.09 127.5,175.5C 127.5,176.833 127.5,178.167 127.5,179.5C 118.826,177.246 110.993,173.246 104,167.5C 103.53,166.423 103.697,165.423 104.5,164.5 Z"/></g>
<g><path style="opacity:0.973" fill="#f8e769" d="M 95.5,171.5 C 94.4781,177.166 92.1448,182.166 88.5,186.5C 89.8986,180.926 92.2319,175.926 95.5,171.5 Z"/></g>
<g><path style="opacity:0.314" fill="#f6e788" d="M 393.5,178.5 C 395.38,180.755 396.38,183.422 396.5,186.5C 394.62,184.245 393.62,181.578 393.5,178.5 Z"/></g>
<g><path style="opacity:1" fill="#fabb14" d="M 317.5,161.5 C 324.81,185.215 325.31,209.215 319,233.5C 314.565,245.924 309.232,257.924 303,269.5C 296.741,278.1 290.074,286.433 283,294.5C 280.167,296 278,298.167 276.5,301C 274.783,302.559 272.783,303.392 270.5,303.5C 260.148,293.148 250.148,282.482 240.5,271.5C 240.709,270.914 241.043,270.414 241.5,270C 266.255,267.745 279.922,254.245 282.5,229.5C 287.179,229.666 291.845,229.499 296.5,229C 302.654,219.856 309.154,211.022 316,202.5C 316.483,201.552 316.649,200.552 316.5,199.5C 304.149,199.832 291.815,199.499 279.5,198.5C 285.798,197.504 292.132,197.17 298.5,197.5C 300.42,191.021 303.92,185.354 309,180.5C 310.592,176.979 312.425,173.646 314.5,170.5C 316.104,169.713 316.771,168.38 316.5,166.5C 276.165,166.333 235.832,166.5 195.5,167C 194.934,167.995 194.267,168.828 193.5,169.5C 193.33,168.178 193.663,167.011 194.5,166C 235.499,165.5 276.499,165.333 317.5,165.5C 317.5,164.167 317.5,162.833 317.5,161.5 Z"/></g>
<g><path style="opacity:1" fill="#e3a41b" d="M 94.5,183.5 C 102.2,185.979 109.866,188.812 117.5,192C 118.973,192.71 119.64,193.876 119.5,195.5C 116.478,195.196 113.478,194.696 110.5,194C 106.11,191.4 101.444,189.4 96.5,188C 94.8934,186.951 94.2267,185.451 94.5,183.5 Z"/></g>
<g><path style="opacity:1" fill="#e4a621" d="M 383.5,182.5 C 385.5,182.5 387.5,182.5 389.5,182.5C 389.5,183.5 389.5,184.5 389.5,185.5C 381.935,188.783 374.268,191.783 366.5,194.5C 366.297,192.61 366.963,191.11 368.5,190C 373.871,187.981 378.871,185.481 383.5,182.5 Z"/></g>
<g><path style="opacity:1" fill="#fcba28" d="M 186.5,190.5 C 199.833,191.167 213.167,191.833 226.5,192.5C 212.817,192.833 199.15,192.499 185.5,191.5C 185.624,190.893 185.957,190.56 186.5,190.5 Z"/></g>
<g><path style="opacity:1" fill="#f5de5d" d="M 396.5,186.5 C 398.287,189.968 399.62,193.635 400.5,197.5C 399.859,195.958 398.859,194.624 397.5,193.5C 396.526,191.257 396.192,188.924 396.5,186.5 Z"/></g>
<g><path style="opacity:1" fill="#df9016" d="M 314.5,170.5 C 314.5,169.5 314.5,168.5 314.5,167.5C 275.165,167.333 235.832,167.5 196.5,168C 195.36,169.973 194.027,171.807 192.5,173.5C 193.689,174.429 195.022,174.762 196.5,174.5C 196.5,174.833 196.5,175.167 196.5,175.5C 192.932,180.291 189.598,185.291 186.5,190.5C 185.957,190.56 185.624,190.893 185.5,191.5C 199.15,192.499 212.817,192.833 226.5,192.5C 230.797,193.146 234.797,194.646 238.5,197C 241.6,198.591 243.267,201.091 243.5,204.5C 228.5,204.5 213.5,204.5 198.5,204.5C 212.323,203.504 226.323,203.171 240.5,203.5C 240.703,201.61 240.037,200.11 238.5,199C 235.929,198.099 233.596,196.766 231.5,195C 215.867,193.913 200.2,193.08 184.5,192.5C 183.846,190.885 183.346,189.218 183,187.5C 181.439,190.783 179.273,193.617 176.5,196C 192.699,196.811 208.865,196.644 225,195.5C 226.301,195.639 227.134,196.305 227.5,197.5C 210.167,197.5 192.833,197.5 175.5,197.5C 181,187.831 187,178.497 193.5,169.5C 194.267,168.828 194.934,167.995 195.5,167C 235.832,166.5 276.165,166.333 316.5,166.5C 316.771,168.38 316.104,169.713 314.5,170.5 Z"/></g>
<g><path style="opacity:1" fill="#e0861e" d="M 198.5,204.5 C 196.451,204.294 196.117,203.461 197.5,202C 210.18,201.833 222.846,201.333 235.5,200.5C 232.974,199.103 230.308,198.103 227.5,197.5C 227.134,196.305 226.301,195.639 225,195.5C 208.865,196.644 192.699,196.811 176.5,196C 179.273,193.617 181.439,190.783 183,187.5C 183.346,189.218 183.846,190.885 184.5,192.5C 200.2,193.08 215.867,193.913 231.5,195C 233.596,196.766 235.929,198.099 238.5,199C 240.037,200.11 240.703,201.61 240.5,203.5C 226.323,203.171 212.323,203.504 198.5,204.5 Z"/></g>
<g><path style="opacity:1" fill="#fabd14" d="M 193.5,201.5 C 187.675,209.809 181.841,218.143 176,226.5C 175.517,227.448 175.351,228.448 175.5,229.5C 197.51,229.167 219.51,229.5 241.5,230.5C 236.417,235.117 230.417,237.95 223.5,239C 205.158,239.167 186.824,239.667 168.5,240.5C 173.039,243.914 176.372,248.248 178.5,253.5C 178.461,254.583 178.127,255.583 177.5,256.5C 179.059,258.469 180.726,260.302 182.5,262C 181.833,262.333 181.167,262.667 180.5,263C 184.083,263.458 187.083,264.958 189.5,267.5C 188.345,268.95 186.845,269.95 185,270.5C 183.043,266.357 179.876,264.024 175.5,263.5C 175.649,264.552 175.483,265.552 175,266.5C 169.642,270.364 164.809,274.697 160.5,279.5C 159.754,280.736 159.421,282.07 159.5,283.5C 156.856,283.16 154.523,283.827 152.5,285.5C 151.914,285.291 151.414,284.957 151,284.5C 150.5,285.667 149.667,286.5 148.5,287C 148.957,287.414 149.291,287.914 149.5,288.5C 148.349,289.731 147.183,289.731 146,288.5C 147.148,294.241 148.315,300.074 149.5,306C 152.011,307.854 153.344,310.354 153.5,313.5C 150.052,310.539 147.552,306.873 146,302.5C 138.13,279.624 136.463,256.291 141,232.5C 142.541,227.154 144.708,222.154 147.5,217.5C 149.341,215.371 151.008,213.038 152.5,210.5C 153.718,204.391 156.718,199.391 161.5,195.5C 162.593,197.349 163.926,199.016 165.5,200.5C 164.167,202.5 162.833,204.5 161.5,206.5C 163.867,207.618 166.034,208.284 168,208.5C 170.007,207.331 172.173,206.665 174.5,206.5C 174.5,205.5 174.5,204.5 174.5,203.5C 176.288,203.785 177.955,203.452 179.5,202.5C 178.609,201.41 177.609,201.41 176.5,202.5C 175.614,201.675 175.281,200.675 175.5,199.5C 181.545,199.697 187.545,199.363 193.5,198.5C 193.5,199.5 193.5,200.5 193.5,201.5 Z"/></g>
<g><path style="opacity:1" fill="#e3a41a" d="M 391.5,202.5 C 393.167,202.5 394.833,202.5 396.5,202.5C 396.5,203.5 396.5,204.5 396.5,205.5C 388.27,207.909 379.937,209.909 371.5,211.5C 371.36,209.876 372.027,208.71 373.5,208C 379.666,206.219 385.666,204.385 391.5,202.5 Z"/></g>
<g><path style="opacity:1" fill="#e4a51e" d="M 88.5,203.5 C 95.5072,204.935 102.507,206.435 109.5,208C 113.235,209.566 113.235,210.733 109.5,211.5C 102.757,210.324 96.0901,208.824 89.5,207C 88.6634,205.989 88.33,204.822 88.5,203.5 Z"/></g>
<g><path style="opacity:1" fill="#e3a21c" d="M 388.5,227.5 C 385.492,227.701 382.492,228.034 379.5,228.5C 377.667,228.415 376.334,227.748 375.5,226.5C 381.998,224.158 388.831,222.824 396,222.5C 397.5,222.833 399,223.167 400.5,223.5C 400.291,224.086 399.957,224.586 399.5,225C 395.608,225.419 391.942,226.252 388.5,227.5 Z"/></g>
<g><path style="opacity:0.961" fill="#f6df4f" d="M 88.5,186.5 C 87.2604,191.41 86.427,196.41 86,201.5C 85,203.167 84,204.833 83,206.5C 81.5652,215.213 80.2319,223.88 79,232.5C 78.5002,241.494 78.3336,250.494 78.5,259.5C 78.1667,259.5 77.8333,259.5 77.5,259.5C 76.4173,240.926 77.9173,222.592 82,204.5C 83.8771,198.279 86.0438,192.279 88.5,186.5 Z"/></g>
<g><path style="opacity:1" fill="#e4a21b" d="M 106.5,225.5 C 107.5,225.5 108.5,225.5 109.5,225.5C 110.234,226.708 110.567,228.041 110.5,229.5C 101.744,230.02 93.2436,229.02 85,226.5C 84.8333,226.167 84.6667,225.833 84.5,225.5C 86.6667,225.167 88.8333,224.833 91,224.5C 96.1584,225.018 101.325,225.351 106.5,225.5 Z"/></g>
<g><path style="opacity:1" fill="#f5da45" d="M 400.5,197.5 C 404.427,208.699 406.76,220.366 407.5,232.5C 407.5,240.167 407.5,247.833 407.5,255.5C 406.02,242.347 404.853,229.013 404,215.5C 403.846,211.902 402.846,208.569 401,205.5C 400.503,202.854 400.336,200.187 400.5,197.5 Z"/></g>
<g><path style="opacity:1" fill="#e29f1a" d="M 109.5,245.5 C 109.5,246.167 109.5,246.833 109.5,247.5C 108.833,247.5 108.167,247.5 107.5,247.5C 99.4723,247.831 91.4723,247.498 83.5,246.5C 88.1752,244.964 93.0085,244.298 98,244.5C 101.915,244.533 105.749,244.867 109.5,245.5 Z"/></g>
<g><path style="opacity:1" fill="#f0b818" d="M 109.5,245.5 C 105.749,244.867 101.915,244.533 98,244.5C 93.0085,244.298 88.1752,244.964 83.5,246.5C 91.4723,247.498 99.4723,247.831 107.5,247.5C 99.3501,248.493 91.0168,248.826 82.5,248.5C 82.5,246.833 82.5,245.167 82.5,243.5C 91.8955,242.862 100.895,243.529 109.5,245.5 Z"/></g>
<g><path style="opacity:1" fill="#f6c11e" d="M 372.5,225.5 C 373.391,226.11 374.391,226.443 375.5,226.5C 376.334,227.748 377.667,228.415 379.5,228.5C 382.492,228.034 385.492,227.701 388.5,227.5C 384.213,229.735 379.546,230.735 374.5,230.5C 374.5,234.833 374.5,239.167 374.5,243.5C 375.833,243.5 377.167,243.5 378.5,243.5C 378.196,244.15 377.863,244.817 377.5,245.5C 384.803,246.497 392.137,246.831 399.5,246.5C 399.5,245.5 399.5,244.5 399.5,243.5C 400.5,243.5 401.5,243.5 402.5,243.5C 402.64,245.124 401.973,246.29 400.5,247C 391.84,247.5 383.173,247.666 374.5,247.5C 374.5,251.833 374.5,256.167 374.5,260.5C 376.735,260.205 378.735,260.539 380.5,261.5C 378.833,261.5 377.167,261.5 375.5,261.5C 375.5,262.5 375.5,263.5 375.5,264.5C 374.391,264.557 373.391,264.89 372.5,265.5C 373.782,252.171 373.782,238.837 372.5,225.5 Z"/></g>
<g><path style="opacity:1" fill="#e59b1e" d="M 378.5,243.5 C 385.5,243.5 392.5,243.5 399.5,243.5C 399.5,244.5 399.5,245.5 399.5,246.5C 392.137,246.831 384.803,246.497 377.5,245.5C 377.863,244.817 378.196,244.15 378.5,243.5 Z"/></g>
<g><path style="opacity:1" fill="#e08b1b" d="M 314.5,170.5 C 312.425,173.646 310.592,176.979 309,180.5C 303.92,185.354 300.42,191.021 298.5,197.5C 292.132,197.17 285.798,197.504 279.5,198.5C 291.815,199.499 304.149,199.832 316.5,199.5C 316.649,200.552 316.483,201.552 316,202.5C 309.154,211.022 302.654,219.856 296.5,229C 291.845,229.499 287.179,229.666 282.5,229.5C 279.922,254.245 266.255,267.745 241.5,270C 241.043,270.414 240.709,270.914 240.5,271.5C 250.148,282.482 260.148,293.148 270.5,303.5C 271.028,304.721 271.695,305.887 272.5,307C 277.428,308.927 280.594,312.427 282,317.5C 287.026,323.357 292.193,329.023 297.5,334.5C 298.209,335.404 299.209,335.737 300.5,335.5C 300.34,337.199 300.506,338.866 301,340.5C 302.905,341.158 304.405,342.325 305.5,344C 304.833,344.333 304.167,344.667 303.5,345C 285.824,345.833 268.157,345.666 250.5,344.5C 245.992,338.144 241.492,331.81 237,325.5C 235.989,324.663 234.822,324.33 233.5,324.5C 233.657,323.127 233.49,321.793 233,320.5C 226.646,313.327 220.646,305.993 215,298.5C 213.045,297.547 211.378,296.213 210,294.5C 203.752,285.672 197.752,276.672 192,267.5C 187.895,264.73 184.895,261.063 183,256.5C 181.385,255.614 179.885,254.614 178.5,253.5C 176.372,248.248 173.039,243.914 168.5,240.5C 186.824,239.667 205.158,239.167 223.5,239C 230.417,237.95 236.417,235.117 241.5,230.5C 219.51,229.5 197.51,229.167 175.5,229.5C 175.351,228.448 175.517,227.448 176,226.5C 181.841,218.143 187.675,209.809 193.5,201.5C 194.289,201.217 194.956,200.717 195.5,200C 206.5,199.667 217.5,199.333 228.5,199C 227.944,198.617 227.611,198.117 227.5,197.5C 230.308,198.103 232.974,199.103 235.5,200.5C 222.846,201.333 210.18,201.833 197.5,202C 196.117,203.461 196.451,204.294 198.5,204.5C 197.4,205.605 196.733,206.938 196.5,208.5C 194.871,209.625 193.371,210.959 192,212.5C 190.457,216.152 188.624,219.486 186.5,222.5C 185.957,222.56 185.624,222.893 185.5,223.5C 206.156,224.5 226.823,224.833 247.5,224.5C 247.5,226.167 247.5,227.833 247.5,229.5C 245.446,233.058 242.78,236.225 239.5,239C 233.357,241.603 227.023,243.603 220.5,245C 207.154,245.167 193.821,245.667 180.5,246.5C 195.534,264.707 210.034,283.374 224,302.5C 232.535,311.227 239.868,320.894 246,331.5C 249.36,333.36 251.86,336.027 253.5,339.5C 266.821,340.666 280.154,340.833 293.5,340C 293.957,339.586 294.291,339.086 294.5,338.5C 286.509,329.673 278.676,320.673 271,311.5C 256.067,296.755 242.233,281.422 229.5,265.5C 234.179,265.666 238.845,265.499 243.5,265C 247.762,263.468 252.095,262.135 256.5,261C 261.723,258.443 266.39,255.109 270.5,251C 274.586,242.357 276.919,233.19 277.5,223.5C 283.176,223.666 288.843,223.499 294.5,223C 298.911,216.987 302.911,210.821 306.5,204.5C 296.167,204.5 285.833,204.5 275.5,204.5C 273.875,200.252 272.542,195.919 271.5,191.5C 279.5,191.5 287.5,191.5 295.5,191.5C 295.421,190.07 295.754,188.736 296.5,187.5C 299.623,182.879 302.956,178.546 306.5,174.5C 307.404,173.791 307.737,172.791 307.5,171.5C 270.827,171.167 234.161,171.5 197.5,172.5C 197.137,173.183 196.804,173.85 196.5,174.5C 195.022,174.762 193.689,174.429 192.5,173.5C 194.027,171.807 195.36,169.973 196.5,168C 235.832,167.5 275.165,167.333 314.5,167.5C 314.5,168.5 314.5,169.5 314.5,170.5 Z"/></g>
<g><path style="opacity:1" fill="#f8bb23" d="M 186.5,222.5 C 206.993,223.497 227.66,223.831 248.5,223.5C 248.795,225.735 248.461,227.735 247.5,229.5C 247.5,227.833 247.5,226.167 247.5,224.5C 226.823,224.833 206.156,224.5 185.5,223.5C 185.624,222.893 185.957,222.56 186.5,222.5 Z"/></g>
<g><path style="opacity:1" fill="#fab822" d="M 198.5,204.5 C 213.5,204.5 228.5,204.5 243.5,204.5C 229.006,205.331 214.339,205.831 199.5,206C 198.627,207.045 197.627,207.878 196.5,208.5C 196.733,206.938 197.4,205.605 198.5,204.5 Z"/></g>
<g><path style="opacity:1" fill="#fabc13" d="M 178.5,253.5 C 179.885,254.614 181.385,255.614 183,256.5C 184.895,261.063 187.895,264.73 192,267.5C 197.752,276.672 203.752,285.672 210,294.5C 211.378,296.213 213.045,297.547 215,298.5C 220.646,305.993 226.646,313.327 233,320.5C 233.49,321.793 233.657,323.127 233.5,324.5C 227.183,325.987 220.85,327.487 214.5,329C 201.538,330.52 188.538,330.853 175.5,330C 168.932,328.914 162.599,327.414 156.5,325.5C 157.239,325.631 157.906,325.464 158.5,325C 155.684,321.679 154.018,317.845 153.5,313.5C 153.344,310.354 152.011,307.854 149.5,306C 148.315,300.074 147.148,294.241 146,288.5C 147.183,289.731 148.349,289.731 149.5,288.5C 149.291,287.914 148.957,287.414 148.5,287C 149.667,286.5 150.5,285.667 151,284.5C 151.414,284.957 151.914,285.291 152.5,285.5C 154.523,283.827 156.856,283.16 159.5,283.5C 159.421,282.07 159.754,280.736 160.5,279.5C 164.809,274.697 169.642,270.364 175,266.5C 175.483,265.552 175.649,264.552 175.5,263.5C 179.876,264.024 183.043,266.357 185,270.5C 186.845,269.95 188.345,268.95 189.5,267.5C 187.083,264.958 184.083,263.458 180.5,263C 181.167,262.667 181.833,262.333 182.5,262C 180.726,260.302 179.059,258.469 177.5,256.5C 178.127,255.583 178.461,254.583 178.5,253.5 Z"/></g>
<g><path style="opacity:1" fill="#e6a31a" d="M 380.5,261.5 C 386.871,261.488 393.204,261.988 399.5,263C 400.973,263.71 401.64,264.876 401.5,266.5C 392.662,266.123 383.995,265.457 375.5,264.5C 375.5,263.5 375.5,262.5 375.5,261.5C 377.167,261.5 378.833,261.5 380.5,261.5 Z"/></g>
<g><path style="opacity:0.702" fill="#dfb46a" d="M 407.5,232.5 C 408.662,250.662 408.829,268.995 408,287.5C 407.768,288.737 407.268,289.737 406.5,290.5C 406.833,281.167 407.167,271.833 407.5,262.5C 407.5,260.167 407.5,257.833 407.5,255.5C 407.5,247.833 407.5,240.167 407.5,232.5 Z"/></g>
<g><path style="opacity:1" fill="#e7a21b" d="M 387.5,281.5 C 390.427,282.65 393.427,283.65 396.5,284.5C 397.386,285.325 397.719,286.325 397.5,287.5C 394.098,287.658 390.764,287.324 387.5,286.5C 382.839,285.819 378.172,284.653 373.5,283C 372.663,281.989 372.33,280.822 372.5,279.5C 377.57,279.685 382.57,280.352 387.5,281.5 Z"/></g>
<g><path style="opacity:0.994" fill="#e09f5b" d="M 406.5,290.5 C 405.992,298.601 404.325,306.268 401.5,313.5C 402.774,307.257 403.774,300.923 404.5,294.5C 404.585,292.667 405.252,291.334 406.5,290.5 Z"/></g>
<g><path style="opacity:1" fill="#de9e52" d="M 401.5,313.5 C 400.695,318.579 399.029,323.246 396.5,327.5C 396.039,321.977 397.706,317.311 401.5,313.5 Z"/></g>
<g><path style="opacity:1" fill="#fdd517" d="M 107.5,247.5 C 108.167,247.5 108.833,247.5 109.5,247.5C 110.5,247.5 111.5,247.5 112.5,247.5C 112.917,262.418 115.083,277.085 119,291.5C 124.715,300.331 129.548,309.664 133.5,319.5C 140.889,329.066 148.889,338.232 157.5,347C 164.672,351.419 171.672,356.085 178.5,361C 187.347,364.638 196.013,368.471 204.5,372.5C 203.886,376.135 203.552,379.802 203.5,383.5C 202.532,385.607 202.198,387.941 202.5,390.5C 198.611,393.511 197.611,397.344 199.5,402C 197.655,403.128 195.655,403.628 193.5,403.5C 163.229,394.272 137.729,377.605 117,353.5C 100.685,333.205 88.8518,310.538 81.5,285.5C 80.336,276.855 79.336,268.188 78.5,259.5C 80.5273,259.338 82.5273,259.505 84.5,260C 85.714,261.569 87.3807,262.402 89.5,262.5C 96.3719,260.94 103.372,260.106 110.5,260C 109.33,258.245 107.663,257.245 105.5,257C 106.167,256.667 106.833,256.333 107.5,256C 106.376,255.751 105.376,255.251 104.5,254.5C 105.59,253.391 105.59,252.391 104.5,251.5C 101.562,252.575 98.562,252.741 95.5,252C 96.8333,251.333 96.8333,250.667 95.5,250C 90.9805,249.825 86.6472,249.325 82.5,248.5C 91.0168,248.826 99.3501,248.493 107.5,247.5 Z"/></g>
<g><path style="opacity:1" fill="#e3a41b" d="M 107.5,279.5 C 109.167,279.5 110.833,279.5 112.5,279.5C 112.67,280.822 112.337,281.989 111.5,283C 104.448,285.013 97.4478,287.179 90.5,289.5C 88.4038,288.38 88.0705,286.88 89.5,285C 95.816,283.767 101.816,281.934 107.5,279.5 Z"/></g>
<g><path style="opacity:1" fill="#e5a51a" d="M 100.5,261.5 C 103.833,261.5 107.167,261.5 110.5,261.5C 110.5,262.833 110.5,264.167 110.5,265.5C 101.466,266.303 92.4658,267.303 83.5,268.5C 83.33,267.178 83.6634,266.011 84.5,265C 90.0344,264.14 95.3678,262.973 100.5,261.5 Z"/></g>
<g><path style="opacity:1" fill="#e1881f" d="M 407.5,262.5 C 407.167,271.833 406.833,281.167 406.5,290.5C 405.252,291.334 404.585,292.667 404.5,294.5C 403.774,300.923 402.774,307.257 401.5,313.5C 397.706,317.311 396.039,321.977 396.5,327.5C 392.723,333.357 389.723,339.69 387.5,346.5C 386.5,346.5 385.5,346.5 384.5,346.5C 382.57,349.517 381.237,352.851 380.5,356.5C 379.5,356.5 378.5,356.5 377.5,356.5C 377.552,358.903 377.219,361.236 376.5,363.5C 375.312,364.684 374.145,364.684 373,363.5C 372.581,367.852 371.914,368.185 371,364.5C 370.667,366.167 370.333,367.833 370,369.5C 369.667,369.167 369.333,368.833 369,368.5C 368.963,370.974 368.13,372.974 366.5,374.5C 366.435,372.304 365.768,370.304 364.5,368.5C 361.812,367.975 360.145,366.975 359.5,365.5C 356.013,366.469 354.68,368.802 355.5,372.5C 348.133,374.251 342.467,378.418 338.5,385C 333.677,386.118 331.844,388.952 333,393.5C 331.601,394.227 330.101,394.727 328.5,395C 328.324,396.692 327.824,398.192 327,399.5C 325.355,399.307 323.521,399.14 321.5,399C 319.431,398.676 319.098,397.842 320.5,396.5C 318.955,395.548 317.288,395.215 315.5,395.5C 315.357,397.262 315.691,398.929 316.5,400.5C 311.874,401.011 307.207,401.178 302.5,401C 301.833,402.333 300.833,403.333 299.5,404C 293.603,403.953 288.27,405.62 283.5,409C 275.446,409.564 267.446,410.564 259.5,412C 248.486,412.714 237.486,412.547 226.5,411.5C 222.806,412.232 219.139,413.065 215.5,414C 214.23,417.705 211.897,420.538 208.5,422.5C 208.977,423.478 209.643,424.311 210.5,425C 209.244,425.417 208.577,426.25 208.5,427.5C 204.786,427.41 201.452,426.41 198.5,424.5C 195.192,421.397 191.192,420.064 186.5,420.5C 182.5,419.996 178.834,418.663 175.5,416.5C 174.486,415.326 173.153,414.66 171.5,414.5C 167.313,413.244 163.646,411.244 160.5,408.5C 159.297,406.366 157.463,405.032 155,404.5C 153.991,402.975 153.491,401.308 153.5,399.5C 152.167,399.5 150.833,399.5 149.5,399.5C 149.657,398.127 149.49,396.793 149,395.5C 148.667,395.833 148.333,396.167 148,396.5C 144.678,395.868 141.511,394.868 138.5,393.5C 136.404,391.567 134.904,389.233 134,386.5C 132.417,384.945 130.584,383.778 128.5,383C 127.76,379.09 125.427,377.256 121.5,377.5C 119.833,376.5 118.5,375.167 117.5,373.5C 116.972,369.706 114.972,367.039 111.5,365.5C 111.658,362.478 110.325,360.478 107.5,359.5C 106.713,356.141 105.38,352.975 103.5,350C 103.957,349.586 104.291,349.086 104.5,348.5C 103.009,347.756 101.509,347.09 100,346.5C 96.2603,337.356 92.2603,328.356 88,319.5C 87.0318,311.216 85.0318,303.216 82,295.5C 81.5017,292.183 81.335,288.85 81.5,285.5C 88.8518,310.538 100.685,333.205 117,353.5C 137.729,377.605 163.229,394.272 193.5,403.5C 195.905,404.768 198.572,405.435 201.5,405.5C 201.842,406.338 202.508,406.672 203.5,406.5C 209.303,407.971 215.303,409.138 221.5,410C 235.5,410.667 249.5,410.667 263.5,410C 271.524,408.332 279.524,406.666 287.5,405C 290.401,404.125 293.068,402.958 295.5,401.5C 315.125,395.687 332.792,386.187 348.5,373C 364.341,359.005 377.341,342.839 387.5,324.5C 397.991,305.028 404.658,284.361 407.5,262.5 Z"/></g>
<g><path style="opacity:1" fill="#e4a725" d="M 123.5,311.5 C 124.833,311.5 126.167,311.5 127.5,311.5C 127.67,312.822 127.337,313.989 126.5,315C 119.991,318.085 113.991,321.918 108.5,326.5C 107.311,327.429 105.978,327.762 104.5,327.5C 104.238,326.022 104.571,324.689 105.5,323.5C 111.876,319.985 117.876,315.985 123.5,311.5 Z"/></g>
<g><path style="opacity:1" fill="#e4a51b" d="M 113.5,296.5 C 115.5,296.5 117.5,296.5 119.5,296.5C 119.67,297.822 119.337,298.989 118.5,300C 110.812,302.847 103.145,305.681 95.5,308.5C 95.2865,306.856 95.6198,305.356 96.5,304C 102.696,302.622 108.363,300.122 113.5,296.5 Z"/></g>
<g><path style="opacity:1" fill="#e4a61d" d="M 387.5,302.5 C 388.708,303.234 390.041,303.567 391.5,303.5C 391.5,304.5 391.5,305.5 391.5,306.5C 382.956,304.794 374.623,302.46 366.5,299.5C 366.222,297.654 366.889,296.32 368.5,295.5C 372.83,296.663 376.83,298.497 380.5,301C 382.74,301.977 385.073,302.477 387.5,302.5 Z"/></g>
<g><path style="opacity:1" fill="#e69a26" d="M 155.5,325.5 C 155.833,325.5 156.167,325.5 156.5,325.5C 162.599,327.414 168.932,328.914 175.5,330C 188.538,330.853 201.538,330.52 214.5,329C 220.85,327.487 227.183,325.987 233.5,324.5C 234.822,324.33 235.989,324.663 237,325.5C 241.492,331.81 245.992,338.144 250.5,344.5C 268.157,345.666 285.824,345.833 303.5,345C 304.167,344.667 304.833,344.333 305.5,344C 304.405,342.325 302.905,341.158 301,340.5C 300.506,338.866 300.34,337.199 300.5,335.5C 299.209,335.737 298.209,335.404 297.5,334.5C 299.5,333.833 301.5,333.167 303.5,332.5C 303.523,334.6 302.856,336.433 301.5,338C 301.833,338.5 302.167,339 302.5,339.5C 305.319,339.742 308.319,339.742 311.5,339.5C 312.167,342.167 312.833,344.833 313.5,347.5C 322.554,349.205 322.554,350.539 313.5,351.5C 313.5,352.833 313.5,354.167 313.5,355.5C 300.298,363.944 285.965,370.277 270.5,374.5C 265.248,374.862 260.248,375.862 255.5,377.5C 252.5,377.5 249.5,377.5 246.5,377.5C 232.277,377.472 218.277,375.805 204.5,372.5C 196.013,368.471 187.347,364.638 178.5,361C 171.672,356.085 164.672,351.419 157.5,347C 148.889,338.232 140.889,329.066 133.5,319.5C 133.351,318.448 133.517,317.448 134,316.5C 141.163,319.497 148.33,322.497 155.5,325.5 Z"/></g>
<g><path style="opacity:1" fill="#e4a31b" d="M 132.5,327.5 C 133.833,327.5 135.167,327.5 136.5,327.5C 136.67,328.822 136.337,329.989 135.5,331C 129.542,335.289 123.876,339.956 118.5,345C 117.552,345.483 116.552,345.649 115.5,345.5C 115.343,344.127 115.51,342.793 116,341.5C 121.691,336.969 127.191,332.302 132.5,327.5 Z"/></g>
<g><path style="opacity:1" fill="#e3a31c" d="M 144.5,340.5 C 145.833,340.5 147.167,340.5 148.5,340.5C 148.649,341.552 148.483,342.552 148,343.5C 142.738,349.291 137.071,354.625 131,359.5C 130.5,359.167 130,358.833 129.5,358.5C 130.531,357.3 131.365,355.966 132,354.5C 136.739,350.266 140.906,345.599 144.5,340.5 Z"/></g>
<g><path style="opacity:1" fill="#e2a85f" d="M 77.5,259.5 C 77.8333,259.5 78.1667,259.5 78.5,259.5C 79.336,268.188 80.336,276.855 81.5,285.5C 81.335,288.85 81.5017,292.183 82,295.5C 85.0318,303.216 87.0318,311.216 88,319.5C 92.2603,328.356 96.2603,337.356 100,346.5C 101.509,347.09 103.009,347.756 104.5,348.5C 104.291,349.086 103.957,349.586 103.5,350C 105.38,352.975 106.713,356.141 107.5,359.5C 86.6153,329.654 76.6153,296.32 77.5,259.5 Z"/></g>
<g><path style="opacity:1" fill="#e3a763" d="M 396.5,327.5 C 392.087,340.782 385.421,352.782 376.5,363.5C 377.219,361.236 377.552,358.903 377.5,356.5C 378.5,356.5 379.5,356.5 380.5,356.5C 381.237,352.851 382.57,349.517 384.5,346.5C 385.5,346.5 386.5,346.5 387.5,346.5C 389.723,339.69 392.723,333.357 396.5,327.5 Z"/></g>
<g><path style="opacity:1" fill="#e6b171" d="M 107.5,359.5 C 110.325,360.478 111.658,362.478 111.5,365.5C 109.674,363.853 108.34,361.853 107.5,359.5 Z"/></g>
<g><path style="opacity:1" fill="#e5a41b" d="M 158.5,351.5 C 159.5,351.5 160.5,351.5 161.5,351.5C 161.657,352.873 161.49,354.207 161,355.5C 156.943,360.558 153.276,365.892 150,371.5C 148.89,373.037 147.39,373.703 145.5,373.5C 145.343,372.127 145.51,370.793 146,369.5C 150.806,363.875 154.973,357.875 158.5,351.5 Z"/></g>
<g><path style="opacity:0.996" fill="#e5aa5e" d="M 111.5,365.5 C 114.972,367.039 116.972,369.706 117.5,373.5C 115.122,371.122 113.122,368.455 111.5,365.5 Z"/></g>
<g><path style="opacity:1" fill="#e4a11b" d="M 173.5,361.5 C 174.5,361.5 175.5,361.5 176.5,361.5C 176.657,362.873 176.49,364.207 176,365.5C 172.221,370.723 169.221,376.39 167,382.5C 166.092,384.439 164.592,385.439 162.5,385.5C 162.523,383.073 163.023,380.74 164,378.5C 167.899,373.189 171.065,367.522 173.5,361.5 Z"/></g>
<g><path style="opacity:1" fill="#e29d54" d="M 376.5,363.5 C 375.928,365.255 375.094,366.922 374,368.5C 371.332,372.334 368.165,375.667 364.5,378.5C 364.157,376.517 364.824,375.183 366.5,374.5C 368.13,372.974 368.963,370.974 369,368.5C 369.333,368.833 369.667,369.167 370,369.5C 370.333,367.833 370.667,366.167 371,364.5C 371.914,368.185 372.581,367.852 373,363.5C 374.145,364.684 375.312,364.684 376.5,363.5 Z"/></g>
<g><path style="opacity:1" fill="#fed712" d="M 222.5,381.5 C 221.277,389.401 219.943,397.401 218.5,405.5C 213.565,406.448 208.565,406.781 203.5,406.5C 202.508,406.672 201.842,406.338 201.5,405.5C 200.737,404.732 199.737,404.232 198.5,404C 200.167,403.667 201.833,403.333 203.5,403C 204.428,402.612 205.095,401.945 205.5,401C 207.28,395.923 208.946,390.757 210.5,385.5C 209.639,382.436 210.306,379.602 212.5,377C 215.817,376.502 219.15,376.335 222.5,376.5C 222.5,378.167 222.5,379.833 222.5,381.5 Z"/></g>
<g><path style="opacity:1" fill="#fdd516" d="M 371.5,274.5 C 371.5,275.833 371.5,277.167 371.5,278.5C 377.257,277.932 382.59,278.932 387.5,281.5C 382.57,280.352 377.57,279.685 372.5,279.5C 372.33,280.822 372.663,281.989 373.5,283C 378.172,284.653 382.839,285.819 387.5,286.5C 384.753,286.187 382.086,286.52 379.5,287.5C 379.709,288.086 380.043,288.586 380.5,289C 378.744,289.202 377.078,289.702 375.5,290.5C 375.833,291.167 376.167,291.833 376.5,292.5C 374.5,293.167 372.5,293.833 370.5,294.5C 376.644,296.049 382.644,297.883 388.5,300C 386.381,300.342 386.047,301.175 387.5,302.5C 385.073,302.477 382.74,301.977 380.5,301C 376.83,298.497 372.83,296.663 368.5,295.5C 366.889,296.32 366.222,297.654 366.5,299.5C 374.623,302.46 382.956,304.794 391.5,306.5C 391.5,305.5 391.5,304.5 391.5,303.5C 392.912,305.23 392.578,306.73 390.5,308C 387.563,307.989 384.73,308.155 382,308.5C 380.933,306.717 379.433,306.217 377.5,307C 378.634,308.016 378.301,308.683 376.5,309C 379.975,309.447 383.309,310.28 386.5,311.5C 387.608,313.695 387.441,315.695 386,317.5C 384.556,315.845 382.722,315.178 380.5,315.5C 380.5,316.833 380.5,318.167 380.5,319.5C 381.5,319.5 382.5,319.5 383.5,319.5C 383.5,321.167 383.5,322.833 383.5,324.5C 384.833,324.5 386.167,324.5 387.5,324.5C 377.341,342.839 364.341,359.005 348.5,373C 332.792,386.187 315.125,395.687 295.5,401.5C 292.017,400.916 289.017,401.749 286.5,404C 283.629,404.118 280.962,404.784 278.5,406C 274.044,406.867 269.711,406.534 265.5,405C 266.137,402.757 266.47,400.424 266.5,398C 265.096,391.225 264.596,384.391 265,377.5C 266.876,376.391 268.709,375.391 270.5,374.5C 285.965,370.277 300.298,363.944 313.5,355.5C 318.628,353.096 323.295,349.929 327.5,346C 348.99,326.153 363.657,302.319 371.5,274.5 Z"/></g>
<g><path style="opacity:1" fill="#e4a31c" d="M 308.5,361.5 C 310.722,361.178 312.556,361.845 314,363.5C 317.116,369.869 320.783,375.869 325,381.5C 325.01,384.4 323.677,385.066 321,383.5C 317.416,377.331 313.583,371.331 309.5,365.5C 308.571,364.311 308.238,362.978 308.5,361.5 Z"/></g>
<g><path style="opacity:1" fill="#e5a61f" d="M 324.5,351.5 C 326.39,351.297 327.89,351.963 329,353.5C 331.921,359.415 335.921,364.415 341,368.5C 341.494,370.134 341.66,371.801 341.5,373.5C 339.097,373.607 337.264,372.607 336,370.5C 333.486,364.979 329.819,360.312 325,356.5C 324.506,354.866 324.34,353.199 324.5,351.5 Z"/></g>
<g><path style="opacity:1" fill="#e4a41f" d="M 337.5,340.5 C 338.552,340.351 339.552,340.517 340.5,341C 345.359,346.359 350.692,351.193 356.5,355.5C 357.44,358.052 356.44,358.886 353.5,358C 348.427,353.382 343.26,348.882 338,344.5C 337.51,343.207 337.343,341.873 337.5,340.5 Z"/></g>
<g><path style="opacity:1" fill="#e3a21b" d="M 349.5,326.5 C 355.264,329.748 360.931,333.248 366.5,337C 368.923,338.571 370.256,340.737 370.5,343.5C 369.448,343.649 368.448,343.483 367.5,343C 361.974,338.64 356.307,334.474 350.5,330.5C 349.571,329.311 349.238,327.978 349.5,326.5 Z"/></g>
<g><path style="opacity:1" fill="#e4a519" d="M 358.5,311.5 C 359.873,311.343 361.207,311.51 362.5,312C 368.391,316.113 374.724,319.446 381.5,322C 383.167,325.333 382.167,326.667 378.5,326C 372.822,322.159 366.822,318.826 360.5,316C 358.963,314.89 358.297,313.39 358.5,311.5 Z"/></g>
<g><path style="opacity:0.216" fill="#f3d8b6" d="M 123.5,380.5 C 125.5,380.5 126.5,381.5 126.5,383.5C 125.167,382.833 124.167,381.833 123.5,380.5 Z"/></g>
<g><path style="opacity:1" fill="#e39645" d="M 362.5,380.5 C 358.175,385.823 353.175,390.489 347.5,394.5C 347.773,392.549 347.107,391.049 345.5,390C 346.667,389.5 347.5,388.667 348,387.5C 348.569,391.361 349.402,391.361 350.5,387.5C 351.609,388.59 352.609,388.59 353.5,387.5C 352.975,386.808 352.308,386.308 351.5,386C 352.793,385.51 354.127,385.343 355.5,385.5C 355.784,380.427 358.117,378.76 362.5,380.5 Z"/></g>
<g><path style="opacity:1" fill="#e4a321" d="M 293.5,369.5 C 295.311,369.572 296.644,370.405 297.5,372C 300.641,379.115 303.641,386.281 306.5,393.5C 305.022,393.762 303.689,393.429 302.5,392.5C 299.823,386.828 297.157,381.161 294.5,375.5C 293.534,373.604 293.201,371.604 293.5,369.5 Z"/></g>
<g><path style="opacity:1" fill="#dd9948" d="M 121.5,377.5 C 125.427,377.256 127.76,379.09 128.5,383C 130.584,383.778 132.417,384.945 134,386.5C 134.904,389.233 136.404,391.567 138.5,393.5C 134.202,390.537 130.202,387.203 126.5,383.5C 126.5,381.5 125.5,380.5 123.5,380.5C 122.449,379.778 121.782,378.778 121.5,377.5 Z"/></g>
<g><path style="opacity:1" fill="#e4a31e" d="M 189.5,370.5 C 190.5,370.5 191.5,370.5 192.5,370.5C 190.419,378.743 187.752,386.743 184.5,394.5C 183.5,394.5 182.5,394.5 181.5,394.5C 182.996,386.16 185.663,378.16 189.5,370.5 Z"/></g>
<g><path style="opacity:1" fill="#e5a41d" d="M 202.5,390.5 C 202.198,387.941 202.532,385.607 203.5,383.5C 204.266,381.316 204.933,378.982 205.5,376.5C 206.689,375.571 208.022,375.238 209.5,375.5C 207.738,383.468 205.905,391.468 204,399.5C 202.989,400.337 201.822,400.67 200.5,400.5C 200.959,397.123 201.626,393.789 202.5,390.5 Z"/></g>
<g><path style="opacity:1" fill="#e5a21b" d="M 276.5,375.5 C 278.144,375.286 279.644,375.62 281,376.5C 282.335,384.659 284.169,392.659 286.5,400.5C 285.178,400.67 284.011,400.337 283,399.5C 280.211,391.677 278.044,383.677 276.5,375.5 Z"/></g>
<g><path style="opacity:1" fill="#e29849" d="M 138.5,393.5 C 141.511,394.868 144.678,395.868 148,396.5C 148.333,396.167 148.667,395.833 149,395.5C 149.49,396.793 149.657,398.127 149.5,399.5C 150.833,399.5 152.167,399.5 153.5,399.5C 153.491,401.308 153.991,402.975 155,404.5C 157.463,405.032 159.297,406.366 160.5,408.5C 152.36,404.695 145.027,399.695 138.5,393.5 Z"/></g>
<g><path style="opacity:0.988" fill="#e2a45d" d="M 347.5,394.5 C 343.852,397.66 339.852,400.327 335.5,402.5C 335.5,401.5 335.5,400.5 335.5,399.5C 336.833,399.5 338.167,399.5 339.5,399.5C 339.33,398.178 339.663,397.011 340.5,396C 342.866,395.56 345.199,395.06 347.5,394.5 Z"/></g>
<g><path style="opacity:0.976" fill="#e69e54" d="M 335.5,402.5 C 333.853,404.326 331.853,405.66 329.5,406.5C 329.5,405.167 329.5,403.833 329.5,402.5C 331.5,402.5 333.5,402.5 335.5,402.5 Z"/></g>
<g><path style="opacity:1" fill="#fdcf1e" d="M 204.5,372.5 C 218.277,375.805 232.277,377.472 246.5,377.5C 245.737,378.268 244.737,378.768 243.5,379C 244.056,379.383 244.389,379.883 244.5,380.5C 243.5,380.5 242.5,380.5 241.5,380.5C 241.5,386.833 241.5,393.167 241.5,399.5C 240.672,393.013 240.172,386.346 240,379.5C 236.256,378.374 232.423,378.207 228.5,379C 228.935,385.824 228.268,392.657 226.5,399.5C 228.166,402.645 227.833,405.479 225.5,408C 234.782,409.316 244.116,409.816 253.5,409.5C 253.183,406.428 253.516,403.428 254.5,400.5C 258.039,401.796 258.373,403.629 255.5,406C 257.955,407.54 260.621,407.874 263.5,407C 262.437,405.812 261.103,405.312 259.5,405.5C 260.761,399.506 260.761,393.506 259.5,387.5C 258.521,384.375 258.187,381.042 258.5,377.5C 257.5,377.5 256.5,377.5 255.5,377.5C 260.248,375.862 265.248,374.862 270.5,374.5C 268.709,375.391 266.876,376.391 265,377.5C 264.596,384.391 265.096,391.225 266.5,398C 266.47,400.424 266.137,402.757 265.5,405C 269.711,406.534 274.044,406.867 278.5,406C 280.962,404.784 283.629,404.118 286.5,404C 289.017,401.749 292.017,400.916 295.5,401.5C 293.068,402.958 290.401,404.125 287.5,405C 279.524,406.666 271.524,408.332 263.5,410C 249.5,410.667 235.5,410.667 221.5,410C 215.303,409.138 209.303,407.971 203.5,406.5C 208.565,406.781 213.565,406.448 218.5,405.5C 219.943,397.401 221.277,389.401 222.5,381.5C 222.5,379.833 222.5,378.167 222.5,376.5C 219.15,376.335 215.817,376.502 212.5,377C 210.306,379.602 209.639,382.436 210.5,385.5C 208.946,390.757 207.28,395.923 205.5,401C 205.095,401.945 204.428,402.612 203.5,403C 201.833,403.333 200.167,403.667 198.5,404C 199.737,404.232 200.737,404.732 201.5,405.5C 198.572,405.435 195.905,404.768 193.5,403.5C 195.655,403.628 197.655,403.128 199.5,402C 197.611,397.344 198.611,393.511 202.5,390.5C 201.626,393.789 200.959,397.123 200.5,400.5C 201.822,400.67 202.989,400.337 204,399.5C 205.905,391.468 207.738,383.468 209.5,375.5C 208.022,375.238 206.689,375.571 205.5,376.5C 204.933,378.982 204.266,381.316 203.5,383.5C 203.552,379.802 203.886,376.135 204.5,372.5 Z"/></g>
<g><path style="opacity:1" fill="#e1a21c" d="M 222.5,381.5 C 223.467,380.194 224.801,379.527 226.5,379.5C 226.41,387.884 225.743,396.217 224.5,404.5C 223.5,404.5 222.5,404.5 221.5,404.5C 221.889,396.836 222.222,389.17 222.5,381.5 Z"/></g>
<g><path style="opacity:1" fill="#e3a11b" d="M 259.5,387.5 C 259.5,384.833 259.5,382.167 259.5,379.5C 261.124,379.36 262.29,380.027 263,381.5C 264.158,388.808 264.991,396.141 265.5,403.5C 264.167,403.5 262.833,403.5 261.5,403.5C 261.927,397.886 261.26,392.553 259.5,387.5 Z"/></g>
<g><path style="opacity:1" fill="#fdd614" d="M 246.5,377.5 C 249.5,377.5 252.5,377.5 255.5,377.5C 256.5,377.5 257.5,377.5 258.5,377.5C 258.187,381.042 258.521,384.375 259.5,387.5C 260.761,393.506 260.761,399.506 259.5,405.5C 261.103,405.312 262.437,405.812 263.5,407C 260.621,407.874 257.955,407.54 255.5,406C 258.373,403.629 258.039,401.796 254.5,400.5C 253.516,403.428 253.183,406.428 253.5,409.5C 244.116,409.816 234.782,409.316 225.5,408C 227.833,405.479 228.166,402.645 226.5,399.5C 228.268,392.657 228.935,385.824 228.5,379C 232.423,378.207 236.256,378.374 240,379.5C 240.172,386.346 240.672,393.013 241.5,399.5C 241.857,401.589 242.523,403.589 243.5,405.5C 244.498,397.193 244.831,388.86 244.5,380.5C 244.389,379.883 244.056,379.383 243.5,379C 244.737,378.768 245.737,378.268 246.5,377.5 Z"/></g>
<g><path style="opacity:1" fill="#e2a217" d="M 244.5,380.5 C 244.831,388.86 244.498,397.193 243.5,405.5C 242.523,403.589 241.857,401.589 241.5,399.5C 241.5,393.167 241.5,386.833 241.5,380.5C 242.5,380.5 243.5,380.5 244.5,380.5 Z"/></g>
<g><path style="opacity:1" fill="#e28620" d="M 366.5,374.5 C 364.824,375.183 364.157,376.517 364.5,378.5C 364.167,379.5 363.5,380.167 362.5,380.5C 358.117,378.76 355.784,380.427 355.5,385.5C 354.127,385.343 352.793,385.51 351.5,386C 352.308,386.308 352.975,386.808 353.5,387.5C 352.609,388.59 351.609,388.59 350.5,387.5C 349.402,391.361 348.569,391.361 348,387.5C 347.5,388.667 346.667,389.5 345.5,390C 347.107,391.049 347.773,392.549 347.5,394.5C 345.199,395.06 342.866,395.56 340.5,396C 339.663,397.011 339.33,398.178 339.5,399.5C 338.167,399.5 336.833,399.5 335.5,399.5C 335.5,400.5 335.5,401.5 335.5,402.5C 333.5,402.5 331.5,402.5 329.5,402.5C 329.5,403.833 329.5,405.167 329.5,406.5C 325.167,409.669 320.5,412.336 315.5,414.5C 311.594,415.61 307.594,416.443 303.5,417C 303.833,417.333 304.167,417.667 304.5,418C 300.647,418.099 297.647,419.599 295.5,422.5C 284.403,425.635 273.07,427.968 261.5,429.5C 243.792,429.761 226.125,429.095 208.5,427.5C 208.577,426.25 209.244,425.417 210.5,425C 209.643,424.311 208.977,423.478 208.5,422.5C 211.897,420.538 214.23,417.705 215.5,414C 219.139,413.065 222.806,412.232 226.5,411.5C 237.486,412.547 248.486,412.714 259.5,412C 267.446,410.564 275.446,409.564 283.5,409C 288.27,405.62 293.603,403.953 299.5,404C 300.833,403.333 301.833,402.333 302.5,401C 307.207,401.178 311.874,401.011 316.5,400.5C 315.691,398.929 315.357,397.262 315.5,395.5C 317.288,395.215 318.955,395.548 320.5,396.5C 319.098,397.842 319.431,398.676 321.5,399C 323.521,399.14 325.355,399.307 327,399.5C 327.824,398.192 328.324,396.692 328.5,395C 330.101,394.727 331.601,394.227 333,393.5C 331.844,388.952 333.677,386.118 338.5,385C 342.467,378.418 348.133,374.251 355.5,372.5C 354.68,368.802 356.013,366.469 359.5,365.5C 360.145,366.975 361.812,367.975 364.5,368.5C 365.768,370.304 366.435,372.304 366.5,374.5 Z"/></g>
<g><path style="opacity:0.051" fill="#f1d5b0" d="M 171.5,414.5 C 173.153,414.66 174.486,415.326 175.5,416.5C 173.62,416.771 172.287,416.104 171.5,414.5 Z"/></g>
<g><path style="opacity:0.979" fill="#e4a256" d="M 315.5,414.5 C 309.136,417.737 302.47,420.403 295.5,422.5C 297.647,419.599 300.647,418.099 304.5,418C 304.167,417.667 303.833,417.333 303.5,417C 307.594,416.443 311.594,415.61 315.5,414.5 Z"/></g>
<g><path style="opacity:0.776" fill="#e19f53" d="M 186.5,420.5 C 191.192,420.064 195.192,421.397 198.5,424.5C 194.778,423.983 191.112,423.15 187.5,422C 186.944,421.617 186.611,421.117 186.5,420.5 Z"/></g>
<g><path style="opacity:0.925" fill="#e4a766" d="M 295.5,422.5 C 284.735,426.964 273.401,429.631 261.5,430.5C 261.5,430.167 261.5,429.833 261.5,429.5C 273.07,427.968 284.403,425.635 295.5,422.5 Z"/></g>
<g><path style="opacity:0.871" fill="#d69548" d="M 208.5,427.5 C 226.125,429.095 243.792,429.761 261.5,429.5C 261.5,429.833 261.5,430.167 261.5,430.5C 243.533,432.253 225.866,431.253 208.5,427.5 Z"/></g>
</svg>
